<svg xmlns="http://www.w3.org/2000/svg" width="3000" height="3000" viewBox="0 0 3000 3000" version="1.1"><path d="M 729.578 21.747 C 722.558 33.711, 713.818 47.900, 710.157 53.277 C 706.496 58.655, 701.025 66.836, 698 71.457 C 694.975 76.079, 690.700 82.556, 688.500 85.850 C 686.300 89.144, 680.225 98.638, 675 106.947 C 662.989 126.048, 643.858 155.030, 633.257 170.183 C 628.762 176.608, 620.042 190.558, 613.881 201.183 C 603.592 218.924, 599.652 225.229, 581.506 253 C 578.092 258.225, 574.029 264.696, 572.478 267.380 C 570.927 270.064, 566.777 275.914, 563.257 280.380 C 557.766 287.347, 557.086 288.642, 558.471 289.500 C 563.310 292.498, 601.099 317.311, 604.453 319.693 C 615.783 327.738, 624.488 333.503, 656.907 354.437 C 676.381 367.011, 698.881 381.293, 706.907 386.174 C 726.704 398.212, 778.858 431.991, 826.423 463.581 C 848.022 477.926, 872.625 493.632, 881.097 498.484 C 896.277 507.177, 918.484 521.412, 957.260 547.305 C 968.129 554.562, 985.533 566.039, 995.937 572.810 C 1006.342 579.580, 1015.330 585.693, 1015.912 586.394 C 1016.698 587.341, 1016.062 588.678, 1013.443 591.585 C 1011.503 593.738, 1001.699 607.875, 991.657 623 C 964.602 663.750, 959.321 671.983, 949.466 688.781 C 944.535 697.186, 930.600 719.072, 918.500 737.417 C 906.400 755.762, 893.350 775.860, 889.500 782.080 C 885.650 788.300, 872.592 808.264, 860.481 826.445 C 848.371 844.625, 835.594 864.649, 832.088 870.942 C 823.830 885.766, 821.013 890.170, 786.500 942.222 C 749.989 997.286, 738.198 1015.576, 722.692 1041.202 C 715.882 1052.457, 708.519 1064.104, 706.329 1067.083 C 704.140 1070.062, 699.194 1077.450, 695.337 1083.500 C 664.031 1132.613, 654.931 1146.718, 649.209 1154.995 C 630.804 1181.620, 625.066 1190.443, 616.486 1205.304 C 604.808 1225.532, 589.653 1249.421, 571.517 1276.189 C 563.808 1287.567, 555.279 1300.392, 552.565 1304.689 C 549.850 1308.985, 544.403 1317.450, 540.459 1323.500 C 520.118 1354.708, 514.997 1362.682, 506.743 1376 C 494.630 1395.543, 482.519 1414.624, 471.517 1431.500 C 459.882 1449.347, 454.211 1458.183, 445.500 1472.041 C 441.650 1478.166, 436.050 1486.625, 433.055 1490.839 C 416.658 1513.911, 402.027 1536.890, 382.968 1569.500 C 380.075 1574.450, 374.699 1583, 371.022 1588.500 C 349.986 1619.964, 332.392 1646.565, 324.278 1659.172 C 319.206 1667.052, 308.884 1682.950, 301.340 1694.500 C 293.795 1706.050, 283.095 1722.929, 277.561 1732.009 C 261.321 1758.658, 226.744 1811.962, 203.944 1845.500 C 192.287 1862.645, 167.246 1902.550, 163.570 1909.838 C 162.089 1912.774, 154.942 1923.953, 147.688 1934.679 C 140.435 1945.405, 131.003 1959.653, 126.729 1966.341 C 118.668 1978.953, 103.926 2001.709, 96.501 2013 C 94.151 2016.575, 85.228 2030.142, 76.673 2043.149 C 68.118 2056.156, 58.408 2071.503, 55.095 2077.255 C 49.265 2087.374, 41.242 2100.444, 31.311 2116 C 28.677 2120.125, 26.411 2123.950, 26.275 2124.500 C 26.139 2125.050, 29.059 2127.502, 32.764 2129.949 C 36.469 2132.396, 47.150 2139.637, 56.500 2146.040 C 65.850 2152.444, 77.325 2159.866, 82 2162.534 C 96.053 2170.553, 133.693 2194.269, 151.654 2206.420 C 185.685 2229.444, 231.062 2258.936, 259.500 2276.513 C 269.950 2282.972, 286.714 2293.808, 296.753 2300.593 L 315.007 2312.929 318.124 2306.715 C 319.839 2303.297, 324.548 2295.704, 328.588 2289.842 C 353.172 2254.175, 378.472 2214.976, 389.737 2195.101 C 393.354 2188.720, 401.536 2175.850, 407.920 2166.500 C 419.349 2149.759, 425.925 2139.743, 441.277 2115.686 C 457.783 2089.821, 466.841 2075.956, 476.673 2061.500 C 486.090 2047.655, 493.290 2036.116, 505.377 2015.500 C 515.830 1997.672, 565.837 1921.837, 568.037 1920.477 C 568.635 1920.108, 569.541 1918.706, 570.052 1917.363 C 570.844 1915.279, 571.281 1915.080, 573.019 1916.010 C 574.139 1916.610, 574.785 1917.539, 574.454 1918.075 C 574.122 1918.611, 574.222 1918.926, 574.676 1918.776 C 575.636 1918.458, 579.195 1920.661, 641 1959.834 C 666.575 1976.045, 700.325 1997.946, 716 2008.505 C 748.450 2030.364, 766.558 2041.931, 793 2057.690 C 803.175 2063.754, 824.564 2077.442, 840.531 2088.108 C 856.498 2098.774, 877.332 2112.450, 886.829 2118.500 C 896.326 2124.550, 914.536 2136.407, 927.298 2144.849 C 940.059 2153.291, 954.550 2162.572, 959.500 2165.473 C 968.921 2170.996, 988.627 2183.343, 1012.794 2198.865 C 1028.770 2209.125, 1035.653 2213.678, 1064.500 2233.065 C 1075.500 2240.458, 1086.525 2247.807, 1089 2249.397 C 1105.402 2259.929, 1124.483 2271.805, 1136.500 2278.961 C 1144.200 2283.546, 1162.200 2295.038, 1176.500 2304.499 C 1190.800 2313.959, 1212.850 2328.348, 1225.500 2336.473 C 1238.150 2344.599, 1259.525 2358.558, 1273 2367.494 C 1286.475 2376.430, 1302.675 2386.777, 1309 2390.487 C 1330.610 2403.162, 1353.907 2418.177, 1401.500 2450.104 C 1423.379 2464.781, 1456.543 2485.987, 1475 2497.103 C 1482.975 2501.905, 1502.633 2514.535, 1518.685 2525.168 C 1534.737 2535.800, 1557.008 2550.350, 1568.176 2557.500 C 1579.343 2564.650, 1594.110 2574.295, 1600.990 2578.934 C 1607.871 2583.573, 1618.263 2590.584, 1624.084 2594.514 C 1629.905 2598.444, 1640.255 2604.870, 1647.084 2608.794 C 1665.688 2619.482, 1694.375 2637.699, 1718.759 2654.311 C 1744.926 2672.136, 1783.827 2697.259, 1808.722 2712.410 C 1833.207 2727.312, 1886.801 2761.911, 1933.353 2792.868 C 1974.833 2820.453, 1974.775 2820.416, 2005.500 2838.765 C 2017.050 2845.662, 2035.198 2857.199, 2045.829 2864.403 C 2076.348 2885.082, 2110.768 2907.458, 2156.249 2936.187 C 2226.044 2980.275, 2250.825 2996.342, 2252.702 2998.725 C 2253.363 2999.564, 2254.548 3000.004, 2255.336 2999.701 C 2256.124 2999.399, 2262.769 2989.105, 2270.102 2976.826 C 2277.436 2964.547, 2289.703 2945.050, 2297.363 2933.500 C 2312.679 2910.405, 2316.766 2904.151, 2332.002 2880.500 C 2341.795 2865.299, 2350.187 2852.583, 2370.611 2822 C 2375.570 2814.575, 2382.464 2803.550, 2385.931 2797.500 C 2389.399 2791.450, 2393.238 2784.925, 2394.462 2783 C 2395.686 2781.075, 2401.343 2772.075, 2407.033 2763 C 2419.243 2743.525, 2432.681 2723.492, 2438.212 2716.516 L 2442.165 2711.532 2439.332 2709.174 C 2437.775 2707.877, 2426.825 2700.537, 2415 2692.863 C 2403.175 2685.189, 2386.604 2674.220, 2378.176 2668.487 C 2369.748 2662.755, 2356.023 2653.681, 2347.676 2648.322 C 2305.741 2621.403, 2298.177 2616.609, 2291.610 2612.794 C 2287.699 2610.523, 2279.550 2605.437, 2273.500 2601.492 C 2259.196 2592.166, 2243.126 2581.769, 2216.321 2564.500 C 2204.369 2556.800, 2187.238 2545.550, 2178.250 2539.500 C 2147.698 2518.934, 2127.944 2506.241, 2112.706 2497.386 C 2092.996 2485.931, 2073.652 2473.596, 2052.500 2458.995 C 2043.150 2452.541, 2028.525 2442.861, 2020 2437.485 C 1996.704 2422.795, 1985.570 2415.391, 1984.089 2413.607 C 1982.976 2412.267, 1982.983 2411.685, 1984.128 2410.096 C 1984.883 2409.049, 1987.723 2405.111, 1990.439 2401.346 C 1998.961 2389.534, 2021.089 2356.304, 2033.955 2336 C 2040.751 2325.275, 2047.478 2314.666, 2048.905 2312.425 C 2050.332 2310.184, 2053.075 2305.539, 2055 2302.103 C 2056.925 2298.666, 2062.550 2289.758, 2067.500 2282.307 C 2077.606 2267.094, 2096.597 2237.830, 2116.371 2207 C 2119.722 2201.775, 2130.588 2185.347, 2140.518 2170.494 C 2150.447 2155.641, 2161.905 2137.641, 2165.980 2130.494 C 2170.054 2123.347, 2176.581 2112.550, 2180.483 2106.500 C 2184.384 2100.450, 2189.135 2093.041, 2191.038 2090.035 C 2194.318 2084.857, 2199.117 2077.643, 2222.657 2042.500 C 2238 2019.595, 2269.408 1970.501, 2277.995 1956 C 2280.437 1951.875, 2288.975 1938.509, 2296.968 1926.298 C 2304.961 1914.087, 2314.650 1899.093, 2318.500 1892.977 C 2322.350 1886.862, 2335.858 1866.252, 2348.518 1847.179 C 2373.853 1809.010, 2379.951 1799.434, 2394.485 1775 C 2403.856 1759.246, 2416.325 1739.980, 2435.646 1711.405 C 2443.720 1699.464, 2448.861 1691.596, 2470.213 1658.500 C 2474.117 1652.450, 2483.939 1636.925, 2492.041 1624 C 2500.143 1611.075, 2511.993 1592.400, 2518.374 1582.500 C 2533.134 1559.602, 2544.749 1541.529, 2553 1528.623 C 2556.575 1523.031, 2565.618 1509.466, 2573.095 1498.478 C 2580.572 1487.490, 2590.649 1472.200, 2595.489 1464.500 C 2600.329 1456.800, 2605.283 1448.925, 2606.498 1447 C 2607.713 1445.075, 2611.769 1438.152, 2615.510 1431.616 C 2619.251 1425.080, 2627.784 1411.580, 2634.471 1401.616 C 2641.158 1391.652, 2649.347 1379.450, 2652.669 1374.500 C 2655.991 1369.550, 2665.818 1354.475, 2674.507 1341 C 2683.196 1327.525, 2692.799 1312.675, 2695.848 1308 C 2703.220 1296.694, 2722.665 1266.045, 2732 1251.018 C 2749.439 1222.946, 2772.458 1187.667, 2792.693 1158 C 2805.127 1139.771, 2822.652 1111.959, 2837.770 1086.464 C 2843.326 1077.095, 2851.331 1064.495, 2855.558 1058.464 C 2859.785 1052.434, 2866.001 1043.262, 2869.372 1038.083 C 2872.742 1032.903, 2879.100 1023.132, 2883.500 1016.370 C 2887.900 1009.607, 2895.100 998.420, 2899.500 991.509 C 2903.900 984.598, 2915.302 967.144, 2924.838 952.722 C 2934.373 938.300, 2943.301 924.299, 2944.676 921.609 C 2947.017 917.031, 2967.021 884.700, 2971.135 878.846 C 2973.749 875.126, 2973.481 873.711, 2969.750 871.541 C 2967.963 870.502, 2957.053 863.168, 2945.506 855.245 C 2933.960 847.322, 2920.010 838.331, 2914.506 835.267 C 2901.303 827.914, 2867.277 806.129, 2832 782.441 C 2797.457 759.247, 2754.975 731.944, 2738 722.027 C 2731.125 718.011, 2721.225 711.718, 2716 708.043 C 2710.775 704.368, 2703.575 699.627, 2700 697.507 C 2696.425 695.387, 2691.860 692.380, 2689.856 690.826 C 2687.852 689.272, 2685.796 688, 2685.286 688 C 2684.777 688, 2682.142 691.481, 2679.430 695.736 C 2674.165 703.999, 2668.882 711.920, 2656.913 729.500 C 2644.509 747.717, 2618.765 788.365, 2610.067 803.463 C 2606.822 809.098, 2596.366 825.450, 2586.833 839.801 C 2577.300 854.152, 2564.100 874.279, 2557.500 884.528 C 2550.900 894.777, 2536.037 917.441, 2524.471 934.891 C 2512.905 952.342, 2501.036 970.868, 2498.097 976.060 C 2487.870 994.125, 2459.098 1039.243, 2445.525 1058.500 C 2440.486 1065.650, 2434.819 1074.075, 2432.931 1077.222 C 2430.777 1080.813, 2428.816 1082.954, 2427.664 1082.972 C 2426.653 1082.987, 2421.253 1079.899, 2415.664 1076.108 C 2404.927 1068.828, 2390.462 1059.645, 2378 1052.199 C 2373.875 1049.734, 2366.225 1044.918, 2361 1041.498 C 2355.775 1038.077, 2341.150 1028.645, 2328.500 1020.537 C 2315.850 1012.430, 2298.750 1001.258, 2290.500 995.711 C 2245.064 965.162, 2220.653 949.494, 2206.804 941.991 C 2196.408 936.358, 2177.737 924.414, 2165.282 915.429 C 2160.763 912.168, 2145.013 901.753, 2130.282 892.284 C 2115.552 882.816, 2092.925 868.090, 2080 859.561 C 2067.075 851.032, 2050.124 840.217, 2042.330 835.527 C 2018.996 821.487, 1978.565 795.610, 1951 777.074 C 1905.985 746.804, 1894.981 739.724, 1868.500 723.992 C 1858.600 718.111, 1838.738 705.469, 1824.362 695.900 C 1809.986 686.330, 1788.405 672.200, 1776.404 664.500 C 1764.404 656.800, 1743.316 643.029, 1729.542 633.897 C 1715.769 624.766, 1698.425 613.770, 1691 609.462 C 1677.502 601.632, 1648.109 582.907, 1625.500 567.737 C 1575.174 533.970, 1540.173 511.406, 1519 499.081 C 1512.125 495.079, 1502.225 488.774, 1497 485.070 C 1487.543 478.366, 1468.067 465.574, 1439.500 447.304 C 1424.070 437.435, 1398.503 420.542, 1380 407.988 C 1374.225 404.070, 1364.100 397.662, 1357.500 393.748 C 1323.605 373.646, 1320.893 371.941, 1291.191 352.077 C 1243.798 320.380, 1207.282 296.887, 1181 281.183 C 1174.125 277.075, 1163.325 270.256, 1157 266.031 C 1150.675 261.805, 1130.875 248.949, 1113 237.462 C 1095.125 225.974, 1074.200 212.301, 1066.500 207.076 C 1036.113 186.456, 1014.706 172.642, 1004.211 166.882 C 995.037 161.848, 961.380 140.657, 950.500 133.066 C 939.718 125.543, 907.835 104.653, 871 80.976 C 863.025 75.850, 852.225 68.897, 847 65.527 C 841.775 62.156, 834.575 57.651, 831 55.516 C 824.600 51.695, 790.590 29.924, 761.795 11.218 C 753.707 5.963, 747.263 1.383, 747.476 1.040 C 747.688 0.696, 746.620 0.320, 745.102 0.205 C 742.511 0.007, 741.568 1.316, 729.578 21.747 M 1300.893 779.298 C 1290.475 795.583, 1284.144 805.880, 1280.481 812.500 C 1278.351 816.350, 1268.258 832.156, 1258.054 847.625 C 1241.920 872.082, 1233.396 885.251, 1215.550 913.293 C 1210.218 921.671, 1202.564 933.178, 1188.807 953.500 C 1182.478 962.850, 1172.431 978.825, 1166.482 989 C 1153.778 1010.726, 1151.420 1014.429, 1123.513 1056.500 C 1111.838 1074.100, 1097.643 1095.700, 1091.969 1104.500 C 1086.294 1113.300, 1078.862 1124.775, 1075.452 1130 C 1072.042 1135.225, 1064.987 1146.475, 1059.774 1155 C 1050.562 1170.063, 1045.335 1178.308, 1032.515 1198 C 1026.120 1207.824, 1009.357 1233.846, 1005.460 1240 C 1000.868 1247.252, 981.808 1276.044, 972.338 1290.034 C 966.927 1298.027, 960.975 1307.027, 959.110 1310.034 C 957.246 1313.040, 954.031 1318.200, 951.967 1321.500 C 949.902 1324.800, 945.210 1332.675, 941.540 1339 C 931.444 1356.400, 924.407 1367.321, 901.916 1400.500 C 896.696 1408.200, 886.664 1423.500, 879.622 1434.500 C 872.580 1445.500, 862.129 1461.700, 856.398 1470.500 C 850.667 1479.300, 841.647 1493.475, 836.353 1502 C 831.058 1510.525, 825.719 1519.075, 824.487 1521 C 805.925 1550.006, 802.435 1555.427, 786.182 1580.500 C 774.320 1598.799, 765.743 1611.447, 761.851 1616.381 C 759.733 1619.065, 758 1621.840, 758 1622.547 C 758 1624.385, 763.265 1628.228, 781.942 1640.021 C 790.985 1645.731, 815.963 1662.124, 837.448 1676.451 C 872.997 1700.156, 883.019 1706.471, 916 1725.948 C 921.775 1729.359, 933.025 1736.663, 941 1742.181 C 955.609 1752.288, 962.930 1757.085, 999.500 1780.516 C 1010.500 1787.564, 1031.406 1801.234, 1045.957 1810.895 C 1060.509 1820.556, 1077.159 1831.199, 1082.957 1834.547 C 1102.289 1845.709, 1114.641 1853.640, 1173.257 1892.521 C 1212.078 1918.272, 1235.690 1933.351, 1248.500 1940.571 C 1258.157 1946.014, 1274.609 1956.473, 1285.500 1964.092 C 1291.550 1968.324, 1306.175 1977.974, 1318 1985.535 C 1346.142 2003.529, 1377.404 2023.980, 1393 2034.597 C 1399.875 2039.277, 1411.800 2046.837, 1419.500 2051.396 C 1427.200 2055.955, 1436.650 2061.549, 1440.500 2063.826 C 1447.389 2067.901, 1484.594 2092.249, 1509.689 2109.105 C 1538.487 2128.449, 1586.151 2158.988, 1598.500 2166.008 C 1601.800 2167.884, 1615.075 2176.367, 1628 2184.859 C 1640.925 2193.350, 1656.087 2203.268, 1661.693 2206.899 C 1667.300 2210.529, 1676.557 2216.537, 1682.265 2220.250 C 1692.405 2226.845, 1695 2228.019, 1695 2226.010 C 1695 2225.465, 1698.353 2219.855, 1702.450 2213.544 C 1706.548 2207.232, 1713.955 2195.084, 1718.910 2186.547 C 1723.865 2178.010, 1729.636 2168.657, 1731.735 2165.762 C 1736.062 2159.797, 1751.219 2136.620, 1771.471 2105 C 1784.996 2083.883, 1790.877 2074.976, 1811.744 2044 C 1817.487 2035.475, 1824.022 2025.350, 1826.266 2021.500 C 1839.242 1999.240, 1844.256 1990.967, 1853.234 1977 C 1858.715 1968.475, 1866.844 1956.100, 1871.300 1949.500 C 1888.393 1924.178, 1895.300 1913.714, 1910.575 1890 C 1919.255 1876.525, 1930.923 1858.075, 1936.504 1849 C 1942.086 1839.925, 1952.060 1824.175, 1958.670 1814 C 1971.176 1794.750, 1984.190 1774.472, 1996.372 1755.256 C 2000.292 1749.072, 2008.089 1737.372, 2013.698 1729.256 C 2026.113 1711.291, 2042.783 1685.669, 2049.975 1673.500 C 2068.619 1641.950, 2068.488 1642.155, 2100.041 1595 C 2111.593 1577.736, 2156.455 1507.934, 2168.489 1488.500 C 2171.895 1483, 2177.428 1474.225, 2180.785 1469 C 2187.762 1458.140, 2201.257 1437.048, 2211.500 1420.993 C 2218.619 1409.835, 2233.498 1387.956, 2239.203 1380.257 C 2240.932 1377.923, 2242.157 1375.849, 2241.924 1375.648 C 2241.382 1375.180, 2208.469 1353.647, 2196.019 1345.616 C 2190.804 1342.252, 2178.204 1333.902, 2168.019 1327.061 C 2128.635 1300.607, 2108.839 1287.952, 2092 1278.462 C 2086.225 1275.208, 2070.025 1264.880, 2056 1255.512 C 2028.447 1237.106, 2018.962 1230.914, 1989 1211.765 C 1978.275 1204.911, 1959.175 1192.458, 1946.554 1184.091 C 1933.934 1175.725, 1920.659 1167.252, 1917.054 1165.264 C 1907.090 1159.767, 1875.227 1139.522, 1849.124 1122.101 C 1811.594 1097.055, 1768.316 1069.136, 1753.634 1060.500 C 1746.153 1056.100, 1727.763 1044.387, 1712.766 1034.470 C 1697.770 1024.554, 1677.417 1011.279, 1667.539 1004.970 C 1657.660 998.662, 1634.260 983.335, 1615.539 970.912 C 1596.817 958.489, 1576.775 945.707, 1571 942.509 C 1558.676 935.684, 1531.211 918.236, 1508.164 902.590 C 1483.803 886.051, 1428.648 850.318, 1411 839.640 C 1402.475 834.481, 1380.087 820.190, 1361.249 807.880 C 1321.161 781.686, 1307.056 772.577, 1306.154 772.298 C 1305.794 772.187, 1303.427 775.337, 1300.893 779.298" stroke="none" fill="#40b5fc" fill-rule="evenodd"/></svg>